<?xml version="1.0" standalone="no"?><!DOCTYPE svg PUBLIC "-//W3C//DTD SVG 1.1//EN" "http://www.w3.org/Graphics/SVG/1.1/DTD/svg11.dtd"><svg t="1770603320301" class="icon" viewBox="0 0 1024 1024" version="1.1" xmlns="http://www.w3.org/2000/svg" p-id="2261" xmlns:xlink="http://www.w3.org/1999/xlink" width="200" height="200"><path d="M880.64 934.0928l-123.904-88.1152a35.84 35.84 0 0 0-45.312 2.9184L599.7568 952.32a35.84 35.84 0 0 1-48.6912 0l-113.2032-103.2192a35.84 35.84 0 0 0-46.08-2.1504l-112.64 84.3776a35.84 35.84 0 0 1-57.6512-28.8256V302.9504a125.696 125.696 0 0 1 126.1056-125.696h464.3328a125.7472 125.7472 0 0 1 125.7472 125.696v601.8048a35.84 35.84 0 0 1-57.0368 29.3376z" fill="#7cba59" p-id="2262" data-spm-anchor-id="a313x.collections_detail.0.i21.1c1a3a81WooWB6" class="selected"></path><path d="M473.6 906.24a61.44 61.44 0 0 1-41.5232-16.2304l-113.2032-103.1168a10.24 10.24 0 0 0-13.2608-0.6656L193.1776 870.4a61.44 61.44 0 0 1-98.6112-49.2544V221.7984A151.4496 151.4496 0 0 1 245.76 70.4512h464.3328a151.4496 151.4496 0 0 1 151.296 151.3472v601.8048a61.44 61.44 0 0 1-97.28 50.176l-123.904-88.1152a10.24 10.24 0 0 0-13.1072 0.8704l-111.7696 103.2192A61.44 61.44 0 0 1 473.6 906.24z m-161.7408-173.2608A61.44 61.44 0 0 1 353.28 749.056l113.152 103.168a10.24 10.24 0 0 0 14.1312 0l111.7184-103.2704a61.9008 61.9008 0 0 1 77.568-5.12l123.904 88.1152a10.24 10.24 0 0 0 16.4352-8.4992V221.7984a100.2496 100.2496 0 0 0-100.096-100.1472H245.76a100.2496 100.2496 0 0 0-99.9936 100.1472v599.552a10.24 10.24 0 0 0 5.7344 9.3184 10.24 10.24 0 0 0 10.9568-0.9728l112.64-84.3776a61.44 61.44 0 0 1 36.7616-12.3392z" fill="#333333" p-id="2263"></path><path d="M596.1728 456.2944a25.6 25.6 0 0 0 0-51.2h-70.0928l91.5968-111.6672a25.6 25.6 0 1 0-39.5776-32.3072L477.9008 383.0784 377.9072 262.4a25.6 25.6 0 1 0-39.424 32.6656l91.1872 110.0288H359.8848a25.6 25.6 0 0 0 0 51.2h92.5184v62.7712H359.8848a25.6 25.6 0 0 0 0 51.2h92.5184v53.4016a25.6 25.6 0 0 0 51.2 0v-53.4016h92.5696a25.6 25.6 0 0 0 0-51.2H503.6032V456.2944z" fill="#333333" p-id="2264"></path></svg>