<?xml version="1.0" standalone="no"?><!DOCTYPE svg PUBLIC "-//W3C//DTD SVG 1.1//EN" "http://www.w3.org/Graphics/SVG/1.1/DTD/svg11.dtd"><svg t="1770603123042" class="icon" viewBox="0 0 1024 1024" version="1.1" xmlns="http://www.w3.org/2000/svg" p-id="2754" xmlns:xlink="http://www.w3.org/1999/xlink" width="200" height="200"><path d="M798.02368 407.552c0 99.65568-85.4016 245.02272-256.28672 435.97824a39.7312 39.7312 0 0 1-59.47392 0c-170.88512-190.99648-256.28672-336.2816-256.28672-435.97824a286.02368 286.02368 0 0 1 572.04736 0z m-61.44 0c0-62.01344-21.9136-114.97472-65.78176-158.84288-43.8272-43.8272-96.78848-65.78176-158.80192-65.78176-62.01344 0-114.97472 21.95456-158.80192 65.78176-43.8272 43.86816-65.78176 96.82944-65.78176 158.84288 0 81.18272 74.87488 206.848 224.58368 376.95488 149.7088-170.10688 224.58368-295.77216 224.58368-376.95488z" fill="#4D4D4D" p-id="2755"></path><path d="M649.46176 400.9984a138.36288 138.36288 0 0 1-16.22016 64.75776 138.24 138.24 0 0 1-44.8512 49.52064 137.13408 137.13408 0 0 1-103.2192 20.48 137.0112 137.0112 0 0 1-79.4624-47.59552 136.8064 136.8064 0 0 1-30.5152-73.728 137.46176 137.46176 0 1 1 274.26816-13.47584z m-61.44 0a76.75904 76.75904 0 0 0-8.97024-35.88096 75.12064 75.12064 0 0 0-24.82176-27.36128 75.69408 75.69408 0 0 0-64.3072-9.54368 76.43136 76.43136 0 0 0-44.97408 36.90496 75.93984 75.93984 0 0 0 31.21152 102.89152 75.61216 75.61216 0 0 0 50.66752 7.53664 77.25056 77.25056 0 0 0 27.4432-11.34592 76.5952 76.5952 0 0 0 30.47424-41.1648 77.25056 77.25056 0 0 0 3.2768-22.07744z" fill="#14C188" p-id="2756"></path></svg>