<?xml version="1.0" standalone="no"?><!DOCTYPE svg PUBLIC "-//W3C//DTD SVG 1.1//EN" "http://www.w3.org/Graphics/SVG/1.1/DTD/svg11.dtd"><svg t="1770603113189" class="icon" viewBox="0 0 1024 1024" version="1.1" xmlns="http://www.w3.org/2000/svg" p-id="2438" xmlns:xlink="http://www.w3.org/1999/xlink" width="200" height="200"><path d="M288.52224 188.08832c-62.34112 62.34112-93.51168 137.58464-93.51168 225.73056a30.59712 30.59712 0 0 0 30.72 30.72 30.67904 30.67904 0 0 0 30.72-30.72c0-71.18848 25.1904-131.93216 75.53024-182.272 50.33984-50.3808 111.08352-75.53024 182.272-75.53024s131.97312 25.1904 182.272 75.53024c50.3808 50.33984 75.53024 111.08352 75.53024 182.272a30.59712 30.59712 0 0 0 30.72 30.72 30.63808 30.63808 0 0 0 30.72-30.72c0-88.14592-31.17056-163.38944-93.51168-225.6896-62.34112-62.38208-137.58464-93.55264-225.6896-93.55264-88.18688 0-163.4304 31.17056-225.77152 93.51168z" fill="#4D4D4D" p-id="2439"></path><path d="M783.85152 749.1584a30.39232 30.39232 0 0 0 4.46464-28.59008 30.63808 30.63808 0 0 0-44.60544-16.384 30.39232 30.39232 0 0 0-8.92928 7.9872 127.1808 127.1808 0 0 1-84.5824 49.7664 30.88384 30.88384 0 0 0-25.47712 22.7328 30.47424 30.47424 0 0 0 6.84032 28.13952 30.47424 30.47424 0 0 0 27.15648 9.99424 187.5968 187.5968 0 0 0 71.0656-25.02656 188.04736 188.04736 0 0 0 54.0672-48.57856z" fill="#14C188" p-id="2440"></path><path d="M519.24992 773.7344a18.6368 18.6368 0 0 0 0 37.2736h76.84096a18.6368 18.6368 0 1 0 0-37.2736h-76.84096z m-67.7888 18.6368c0-37.43744 30.3104-67.7888 67.7888-67.7888h76.84096a67.7888 67.7888 0 1 1 0 135.5776h-76.84096a67.7888 67.7888 0 0 1-67.7888-67.7888z" fill="#14C188" p-id="2441"></path><path d="M941.42464 572.29312a170.96704 170.96704 0 0 1-170.92608 170.96704h-14.9504a26.54208 26.54208 0 0 1-26.54208-26.58304v-288.768c0-14.66368 11.8784-26.54208 26.54208-26.54208h14.9504a170.96704 170.96704 0 0 1 170.92608 170.92608z m-61.44 0c0-30.22848-10.6496-56.03328-32.07168-77.4144a105.0624 105.0624 0 0 0-57.46688-30.43328v215.69536c21.79072-3.72736 40.96-13.88544 57.46688-30.39232a105.51296 105.51296 0 0 0 32.07168-77.4144zM88.92416 572.29312a170.96704 170.96704 0 0 0 170.92608 170.96704h14.9504c14.66368 0 26.54208-11.8784 26.54208-26.58304v-288.768a26.54208 26.54208 0 0 0-26.54208-26.54208h-14.90944a170.96704 170.96704 0 0 0-170.96704 170.92608z m61.44 0c0-30.22848 10.69056-56.03328 32.07168-77.4144 16.50688-16.54784 35.67616-26.66496 57.46688-30.43328v215.69536c-21.79072-3.72736-40.96-13.88544-57.46688-30.39232a105.51296 105.51296 0 0 1-32.07168-77.4144z" fill="#4D4D4D" p-id="2442"></path></svg>