<?xml version="1.0" standalone="no"?><!DOCTYPE svg PUBLIC "-//W3C//DTD SVG 1.1//EN" "http://www.w3.org/Graphics/SVG/1.1/DTD/svg11.dtd"><svg t="1770280981268" class="icon" viewBox="0 0 1024 1024" version="1.1" xmlns="http://www.w3.org/2000/svg" p-id="5086" xmlns:xlink="http://www.w3.org/1999/xlink" width="200" height="200"><path d="M972.8 489.024h-6.4c-12.8-44.8-38.4-121.6-102.4-217.6l6.4-83.2c-70.4 64-249.6 96-422.4 96h-19.2c-32 19.2-76.8 57.6-83.2 70.4-12.8 19.2-12.8 44.8-6.4 70.4 6.4 44.8 19.2 108.8 0 134.4 0 6.4-6.4 6.4-12.8 6.4s-19.2 0-25.6-6.4c-6.4-12.8-12.8-25.6-12.8-38.4 0-38.4 6.4-83.2 0-121.6 0-12.8 0-19.2-6.4-32 0-12.8-12.8-25.6-25.6-32-12.8-6.4-25.6-6.4-32 6.4l-6.4 6.4c0 6.4-6.4 12.8-6.4 25.6-12.8 83.2 44.8 166.4 12.8 243.2-6.4 25.6-25.6 44.8-51.2 32-12.8-6.4-19.2-12.8-25.6-19.2-32-57.6-19.2-121.6-12.8-185.6 6.4-57.6 25.6-108.8-25.6-147.2-6.4-6.4-44.8-51.2-44.8-57.6-12.8-12.8-25.6-32-38.4-51.2l64 608c6.4 32 19.2 64 44.8 83.2 51.2 51.2 160 121.6 313.6 121.6s262.4-76.8 313.6-121.6c25.6-19.2 38.4-51.2 44.8-83.2l12.8-96c-147.2-25.6-256-134.4-307.2-198.4-38.4-6.4-70.4-38.4-70.4-83.2 0-44.8 38.4-83.2 83.2-83.2 44.8 0 83.2 38.4 83.2 83.2v19.2c44.8 51.2 121.6 134.4 230.4 153.6l25.6-262.4c38.4 70.4 57.6 128 70.4 166.4l-19.2 19.2-57.6 115.2c-172.8-12.8-288-166.4-320-211.2-6.4-12.8-19.2-12.8-25.6-6.4-6.4 0-12.8 12.8-6.4 25.6 32 51.2 153.6 217.6 345.6 224 6.4 6.4 12.8 19.2 25.6 25.6 25.6 12.8 51.2 6.4 57.6-12.8l57.6-115.2c12.8-25.6 6.4-57.6-19.2-70.4z" fill="#1296db" p-id="5087"></path><path d="M153.6 194.624c0-6.4-6.4-6.4-6.4-12.8 0-38.4 134.4-70.4 294.4-70.4s294.4 32 294.4 70.4c0 6.4 0 6.4-6.4 12.8 76.8-19.2 121.6-51.2 121.6-70.4 0-44.8-160-102.4-409.6-102.4s-409.6 64-409.6 102.4c12.8 25.6 51.2 51.2 121.6 70.4z" fill="#1296db" p-id="5088"></path></svg>