<?xml version="1.0" standalone="no"?><!DOCTYPE svg PUBLIC "-//W3C//DTD SVG 1.1//EN" "http://www.w3.org/Graphics/SVG/1.1/DTD/svg11.dtd"><svg t="1770602926241" class="icon" viewBox="0 0 1024 1024" version="1.1" xmlns="http://www.w3.org/2000/svg" p-id="1540" xmlns:xlink="http://www.w3.org/1999/xlink" width="200" height="200"><path d="M112.51712 744.40704a81.92 81.92 0 0 0 81.92 81.92h635.12576a81.92 81.92 0 0 0 81.92-81.92V299.08992a81.92 81.92 0 0 0-81.92-81.92H194.43712a81.92 81.92 0 0 0-81.92 81.92v445.31712z m61.44 0v-313.83552h676.08576v313.83552c0 13.68064-6.84032 20.48-20.48 20.48H194.43712c-13.63968 0-20.48-6.79936-20.48-20.48z m0-445.27616c0-5.65248 2.048-10.48576 6.02112-14.49984a19.74272 19.74272 0 0 1 14.45888-5.98016h635.12576c13.63968 0 20.48 6.84032 20.48 20.48v70.0416H173.95712v-70.0416z" fill="#4D4D4D" p-id="1541"></path><path d="M284.09856 563.4048H512a30.63808 30.63808 0 0 1 28.38528 42.43456 30.3104 30.3104 0 0 1-16.62976 16.62976 30.72 30.72 0 0 1-11.75552 2.37568H284.09856a30.35136 30.35136 0 0 1-21.7088-9.0112 30.47424 30.47424 0 0 1-8.3968-27.72992 30.59712 30.59712 0 0 1 30.1056-24.73984z" fill="#14C188" p-id="1542"></path></svg>