<?xml version="1.0" standalone="no"?><!DOCTYPE svg PUBLIC "-//W3C//DTD SVG 1.1//EN" "http://www.w3.org/Graphics/SVG/1.1/DTD/svg11.dtd"><svg t="1770602894539" class="icon" viewBox="0 0 1024 1024" version="1.1" xmlns="http://www.w3.org/2000/svg" p-id="1069" xmlns:xlink="http://www.w3.org/1999/xlink" width="200" height="200"><path d="M824.5248 223.76448v275.12832a30.67904 30.67904 0 1 0 61.44 0V223.76448c0-19.78368-6.9632-36.6592-21.01248-50.66752a69.05856 69.05856 0 0 0-50.66752-21.01248H209.7152c-19.78368 0-36.70016 7.00416-50.66752 21.01248a69.05856 69.05856 0 0 0-21.01248 50.66752v527.9744c0 19.82464 7.00416 36.74112 21.01248 50.70848 13.96736 14.00832 30.88384 21.01248 50.66752 21.01248H512a30.63808 30.63808 0 0 0 28.38528-42.47552 30.63808 30.63808 0 0 0-28.38528-18.96448H209.7152a9.8304 9.8304 0 0 1-7.24992-2.99008 9.8304 9.8304 0 0 1-2.99008-7.24992V223.80544c0-6.84032 3.39968-10.24 10.24-10.24h604.5696c2.82624 0 5.24288 0.98304 7.24992 2.99008a9.8304 9.8304 0 0 1 2.99008 7.20896z" fill="#4D4D4D" p-id="1070"></path><path d="M627.34336 477.34784v-294.5024h-61.44v241.33632L512 371.99872l-53.90336 52.18304V182.80448h-61.44v294.5024c0 17.2032 7.90528 29.16352 23.7568 35.84 15.81056 6.71744 29.9008 4.096 42.22976-7.86432L512 457.5232l49.3568 47.75936c12.32896 11.96032 26.4192 14.58176 42.22976 7.86432 15.85152-6.67648 23.7568-18.6368 23.7568-35.79904z" fill="#4D4D4D" p-id="1071"></path><path d="M197.50912 382.3616h218.56256v-61.44H197.50912v61.44z m639.67232-61.44h-236.42112v61.44h236.42112v-61.44z" fill="#4D4D4D" p-id="1072"></path><path d="M951.58272 707.54304a193.16736 193.16736 0 0 1-43.95008 122.79808 195.82976 195.82976 0 0 1-42.10688 38.17472 192.1024 192.1024 0 0 1-69.79584 28.91776 196.11648 196.11648 0 0 1-56.7296 2.78528 197.59104 197.59104 0 0 1-46.2848-10.40384 190.21824 190.21824 0 0 1-42.31168-21.2992 196.28032 196.28032 0 0 1-35.88096-30.96576 192.1024 192.1024 0 0 1-38.83008-64.79872 188.8256 188.8256 0 0 1-9.25696-36.82304 196.77184 196.77184 0 0 1-1.14688-47.34976 196.77184 196.77184 0 0 1 10.40384-46.2848 187.43296 187.43296 0 0 1 16.22016-34.28352 202.1376 202.1376 0 0 1 16.384-23.30624 192.1024 192.1024 0 0 1 50.13504-43.2128 197.55008 197.55008 0 0 1 43.33568-19.2512 196.73088 196.73088 0 0 1 46.6944-8.06912 193.16736 193.16736 0 0 1 132.3008 43.70432 191.93856 191.93856 0 0 1 47.9232 58.40896 193.3312 193.3312 0 0 1 22.89664 91.25888z m-53.248 0a140.32896 140.32896 0 1 0-280.65792 0 140.32896 140.32896 0 0 0 280.61696 0z" fill="#14C188" p-id="1073"></path><path d="M757.9648 676.82304h68.56704a30.67904 30.67904 0 1 1 0 61.44h-68.56704a30.63808 30.63808 0 0 1-28.38528-42.47552 30.47424 30.47424 0 0 1 22.40512-18.39104 30.63808 30.63808 0 0 1 5.98016-0.57344z" fill="#14C188" p-id="1074"></path><path d="M788.6848 638.976v68.56704a30.72 30.72 0 1 1-61.44 0V638.976a30.67904 30.67904 0 1 1 61.44 0z" fill="#14C188" p-id="1075"></path></svg>