<?xml version="1.0" standalone="no"?><!DOCTYPE svg PUBLIC "-//W3C//DTD SVG 1.1//EN" "http://www.w3.org/Graphics/SVG/1.1/DTD/svg11.dtd"><svg t="1770603074537" class="icon" viewBox="0 0 1024 1024" version="1.1" xmlns="http://www.w3.org/2000/svg" p-id="2279" xmlns:xlink="http://www.w3.org/1999/xlink" width="200" height="200"><path d="M139.10016 412.4672a40.96 40.96 0 0 0 40.96 40.96h244.1216a40.96 40.96 0 0 0 40.96-40.96V171.2128a40.96 40.96 0 0 0-40.96-40.96h-244.1216a40.96 40.96 0 0 0-40.96 40.96v241.2544z m268.6976-16.384h-211.3536V187.5968h211.3536v208.4864z" fill="#14C188" p-id="2280"></path><path d="M845.824 701.6448h-5.98016a28.50816 28.50816 0 0 0-26.50112 17.69472 28.79488 28.79488 0 0 0 10.56768 34.816 28.50816 28.50816 0 0 0 15.93344 4.83328h6.02112c19.21024 0 35.6352-6.79936 49.23392-20.39808 13.59872-13.59872 20.39808-30.02368 20.39808-49.23392V402.55488c0-14.336-4.05504-27.36128-12.0832-39.19872l-72.66304-106.65984c-13.80352-20.2752-32.9728-30.43328-57.5488-30.43328h-190.17728c-19.2512 0-35.6352 6.79936-49.27488 20.39808a67.09248 67.09248 0 0 0-20.35712 49.23392v179.52768c0 3.39968-1.2288 6.30784-3.60448 8.68352a11.83744 11.83744 0 0 1-8.68352 3.60448H176.5376c-19.2512 0-35.6352 6.79936-49.23392 20.39808a67.09248 67.09248 0 0 0-20.39808 49.23392v132.01408c0 19.2512 6.79936 35.6352 20.39808 49.23392 13.59872 13.59872 30.02368 20.39808 49.23392 20.39808h12.73856a28.50816 28.50816 0 0 0 26.50112-17.69472 28.50816 28.50816 0 0 0-6.22592-31.25248 28.75392 28.75392 0 0 0-20.2752-8.3968h-12.73856a11.83744 11.83744 0 0 1-8.68352-3.60448 11.8784 11.8784 0 0 1-3.60448-8.68352v-132.01408a11.8784 11.8784 0 0 1 3.60448-8.68352 11.83744 11.83744 0 0 1 8.68352-3.60448h324.52608c19.21024 0 35.6352-6.79936 49.23392-20.39808 13.59872-13.59872 20.39808-29.98272 20.39808-49.23392V295.89504c0-8.192 4.096-12.288 12.288-12.288h190.17728c4.34176 0 7.74144 1.80224 10.15808 5.36576l72.62208 106.65984c1.4336 2.048 2.17088 4.38272 2.17088 6.92224v286.80192c0 8.192-4.096 12.288-12.288 12.288z" fill="#4D4D4D" p-id="2281"></path><path d="M448.02048 768.53248a113.0496 113.0496 0 0 1-33.1776 80.11776 113.13152 113.13152 0 0 1-113.0496 28.30336 112.92672 112.92672 0 0 1-67.05152-55.00928 113.09056 113.09056 0 0 1 5.7344-116.36736 112.4352 112.4352 0 0 1 40.79616-36.98688 113.74592 113.74592 0 0 1 75.53024-11.22304 113.54112 113.54112 0 0 1 77.824 57.7536 113.664 113.664 0 0 1 13.39392 53.41184z m-49.152 0a64.06144 64.06144 0 0 0-57.87648-63.8976 63.2832 63.2832 0 0 0-30.88384 4.58752 63.61088 63.61088 0 0 0-28.79488 23.63392 63.65184 63.65184 0 0 0-10.81344 35.6352 64.18432 64.18432 0 0 0 128.36864 0zM807.5264 768.53248a113.0496 113.0496 0 0 1-50.3808 94.208 114.03264 114.03264 0 0 1-62.95552 19.12832 113.0496 113.0496 0 0 1-87.57248-41.45152 112.96768 112.96768 0 0 1-25.1904-82.98496 111.8208 111.8208 0 0 1 12.82048-42.35264 114.4832 114.4832 0 0 1 28.0576-34.16064 114.4832 114.4832 0 0 1 38.99392-20.84864 113.4592 113.4592 0 0 1 141.35296 75.5712 113.4592 113.4592 0 0 1 4.9152 32.89088z m-49.152 0a64.43008 64.43008 0 0 0-23.47008-49.60256 64.3072 64.3072 0 0 0-70.94272-7.00416 64.3072 64.3072 0 0 0-29.0816 81.14176 65.04448 65.04448 0 0 0 18.59584 25.06752 63.56992 63.56992 0 0 0 34.4064 14.25408 64.55296 64.55296 0 0 0 47.02208-14.25408 64.14336 64.14336 0 0 0 23.47008-49.60256z" fill="#4D4D4D" p-id="2282"></path><path d="M483.7376 699.5968a30.63808 30.63808 0 0 0-28.38528 42.47552 30.47424 30.47424 0 0 0 22.40512 18.35008c1.96608 0.4096 3.97312 0.6144 5.98016 0.6144h61.44a30.72 30.72 0 1 0 0-61.44h-61.44z" fill="#4D4D4D" p-id="2283"></path></svg>