<?xml version="1.0" standalone="no"?><!DOCTYPE svg PUBLIC "-//W3C//DTD SVG 1.1//EN" "http://www.w3.org/Graphics/SVG/1.1/DTD/svg11.dtd"><svg t="1770603116306" class="icon" viewBox="0 0 1024 1024" version="1.1" xmlns="http://www.w3.org/2000/svg" p-id="2597" xmlns:xlink="http://www.w3.org/1999/xlink" width="200" height="200"><path d="M672.07168 306.7904a40.91904 40.91904 0 0 1-26.86976-19.49696l-97.77152-168.83712a40.79616 40.79616 0 0 0-45.99808-19.0464 40.83712 40.83712 0 0 0-24.86272 19.0464L378.79808 287.29344a40.83712 40.83712 0 0 1-26.86976 19.53792l-190.79168 40.79616a40.79616 40.79616 0 0 0-32.3584 37.888 40.7552 40.7552 0 0 0 10.4448 29.53216l130.33472 145.16224a40.96 40.96 0 0 1 10.28096 31.58016l-20.11136 194.06848a40.7552 40.7552 0 0 0 16.62976 37.35552 40.7552 40.7552 0 0 0 40.71424 4.3008l178.29888-79.09376a41.08288 41.08288 0 0 1 33.25952 0l178.29888 79.09376a40.83712 40.83712 0 0 0 54.02624-20.76672 40.67328 40.67328 0 0 0 3.31776-20.8896l-20.11136-194.06848a41.00096 41.00096 0 0 1 10.24-31.58016l130.37568-145.16224a40.67328 40.67328 0 0 0 10.40384-29.4912 40.7552 40.7552 0 0 0-22.24128-34.32448 40.67328 40.67328 0 0 0-10.07616-3.60448l-190.79168-40.79616zM512 179.89632l80.03584 138.24c15.1552 26.2144 37.60128 42.47552 67.1744 48.82432l156.22144 33.3824-106.74176 118.86592a98.22208 98.22208 0 0 0-25.64096 78.97088l16.46592 158.88384-145.98144-64.75776c-27.68896-12.288-55.37792-12.288-83.06688 0l-145.98144 64.7168 16.46592-158.84288a98.22208 98.22208 0 0 0-25.64096-78.97088L208.56832 400.30208l156.18048-33.3824a98.22208 98.22208 0 0 0 67.1744-48.82432L512 179.8144z" fill="#4D4D4D" p-id="2598"></path><path d="M574.17728 336.0768l26.46016 45.71136a9.8304 9.8304 0 0 0 6.71744 4.9152l51.65056 11.0592a30.5152 30.5152 0 0 1 22.528 19.78368 30.72 30.72 0 0 1-35.38944 40.26368l-51.6096-11.0592a68.73088 68.73088 0 0 1-47.06304-34.16064l-26.46016-45.71136a30.22848 30.22848 0 0 1-1.80224-27.15648 30.43328 30.43328 0 0 1 16.62976-16.62976 30.59712 30.59712 0 0 1 38.33856 12.98432z" fill="#14C188" p-id="2599"></path></svg>