<?xml version="1.0" standalone="no"?><!DOCTYPE svg PUBLIC "-//W3C//DTD SVG 1.1//EN" "http://www.w3.org/Graphics/SVG/1.1/DTD/svg11.dtd"><svg t="1770603503254" class="icon" viewBox="0 0 1024 1024" version="1.1" xmlns="http://www.w3.org/2000/svg" p-id="15606" id="mx_n_1770603503255" xmlns:xlink="http://www.w3.org/1999/xlink" width="200" height="200"><path d="M256 563.2a358.4 358.4 0 1 0 716.8 0 358.4 358.4 0 1 0-716.8 0z" fill="#0B7091" opacity=".105" p-id="15607"></path><path d="M448.82 897.69a397.62 397.62 0 0 0 397.67-397.67A397.62 397.62 0 0 0 448.82 102.4 397.62 397.62 0 0 0 51.2 500.02a397.62 397.62 0 0 0 397.62 397.67z m0-58.88a338.74 338.74 0 1 1 0-677.479 338.74 338.74 0 0 1 0 677.427z" fill="#0B7091" p-id="15608"></path><path d="M317.082 648.704a29.44 29.44 0 1 0 42.598 40.704L501.76 541.03A36.864 36.864 0 0 0 512 515.584V352.768a29.44 29.44 0 0 0-58.931 0v153.907L317.082 648.704z" fill="#0B7091" p-id="15609"></path></svg>