<?xml version="1.0" standalone="no"?><!DOCTYPE svg PUBLIC "-//W3C//DTD SVG 1.1//EN" "http://www.w3.org/Graphics/SVG/1.1/DTD/svg11.dtd"><svg t="1770602915324" class="icon" viewBox="0 0 1024 1024" version="1.1" xmlns="http://www.w3.org/2000/svg" p-id="1383" xmlns:xlink="http://www.w3.org/1999/xlink" width="200" height="200"><path d="M431.67744 876.78976c12.4928-39.03488 39.28064-58.5728 80.32256-58.5728 41.04192 0 67.82976 19.53792 80.32256 58.5728a30.5152 30.5152 0 0 0 26.2144 21.21728 30.96576 30.96576 0 0 0 11.79648-1.10592 407.26528 407.26528 0 0 0 180.10112-109.85472 30.43328 30.43328 0 0 0 8.192-25.88672 30.47424 30.47424 0 0 0-6.84032-15.19616 81.75616 81.75616 0 0 1-19.8656-54.35392c0-56.19712 28.09856-84.29568 84.33664-84.29568 2.78528 0 5.61152 0.16384 8.35584 0.4096a30.72 30.72 0 0 0 33.09568-24.41216c5.61152-27.40224 8.43776-55.17312 8.43776-83.39456 0-42.5984-6.3488-83.968-18.96448-124.23168a30.14656 30.14656 0 0 0-11.22304-15.64672 30.47424 30.47424 0 0 0-18.30912-5.85728h-1.39264c-56.23808 0-84.33664-28.09856-84.33664-84.29568 0-13.14816 2.8672-25.55904 8.64256-37.23264a30.9248 30.9248 0 0 0-3.2768-32.44032 31.1296 31.1296 0 0 0-3.35872-3.64544 407.71584 407.71584 0 0 0-171.2128-95.80544 30.63808 30.63808 0 0 0-35.55328 15.64672c-15.68768 30.72-40.71424 46.08-75.1616 46.08-34.4064 0-59.47392-15.36-75.1616-46.08a30.72 30.72 0 0 0-35.55328-15.64672 407.7568 407.7568 0 0 0-171.2128 95.8464 30.72 30.72 0 0 0-6.63552 36.0448c5.7344 11.6736 8.6016 24.08448 8.6016 37.23264 0 56.19712-28.01664 84.29568-84.04992 84.29568h-1.6384a30.63808 30.63808 0 0 0-29.4912 21.504 412.18048 412.18048 0 0 0-19.00544 124.23168c0 28.22144 2.82624 55.99232 8.43776 83.39456a30.63808 30.63808 0 0 0 33.09568 24.41216c2.74432-0.24576 5.57056-0.4096 8.35584-0.4096 56.19712 0 84.33664 28.09856 84.33664 84.29568 0 20.56192-6.63552 38.66624-19.8656 54.35392a30.55616 30.55616 0 0 0-4.79232 31.744 30.80192 30.80192 0 0 0 6.144 9.33888 407.30624 407.30624 0 0 0 180.10112 109.85472 30.76096 30.76096 0 0 0 38.01088-20.0704z m207.33952-47.67744c-24.69888-48.25088-67.05152-72.33536-127.01696-72.33536s-102.31808 24.08448-127.01696 72.33536a343.94112 343.94112 0 0 1-109.28128-67.29728c11.8784-21.21728 17.8176-44.6464 17.8176-70.20544 0-40.22272-14.25408-74.5472-42.72128-103.05536-24.94464-24.94464-54.43584-38.95296-88.4736-42.02496a355.77856 355.77856 0 0 1 7.49568-132.42368c30.9248-4.38272 57.91744-18.10432 80.97792-41.1648a140.41088 140.41088 0 0 0 42.72128-103.05536c0-14.49984-2.048-28.4672-6.144-41.94304A344.92416 344.92416 0 0 1 395.6736 166.83008c27.11552 38.05184 65.9456 57.09824 116.3264 57.09824 50.3808 0 89.21088-19.0464 116.3264-57.09824a344.8832 344.8832 0 0 1 108.25728 61.11232c-4.05504 13.47584-6.10304 27.4432-6.10304 41.94304 0 40.22272 14.25408 74.5472 42.72128 103.05536 23.10144 23.10144 50.09408 36.864 80.97792 41.1648a355.61472 355.61472 0 0 1 7.45472 132.42368c-33.9968 3.072-63.488 17.08032-88.4736 42.02496a140.41088 140.41088 0 0 0-42.68032 103.05536c0 25.6 5.9392 48.98816 17.8176 70.20544a343.94112 343.94112 0 0 1-109.28128 67.29728z" fill="#4D4D4D" p-id="1384"></path><path d="M666.4192 500.40832a154.86976 154.86976 0 0 1-11.8784 59.67872 156.79488 156.79488 0 0 1-45.17888 60.86656 156.8768 156.8768 0 0 1-68.48512 32.39936 155.89376 155.89376 0 1 1 125.50144-152.94464z m-61.44 0a94.53568 94.53568 0 1 0-189.11232 0 94.53568 94.53568 0 0 0 189.07136 0z" fill="#14C188" p-id="1385"></path></svg>