<?xml version="1.0" standalone="no"?><!DOCTYPE svg PUBLIC "-//W3C//DTD SVG 1.1//EN" "http://www.w3.org/Graphics/SVG/1.1/DTD/svg11.dtd"><svg t="1770603300196" class="icon" viewBox="0 0 1024 1024" version="1.1" xmlns="http://www.w3.org/2000/svg" p-id="2126" id="mx_n_1770603300197" xmlns:xlink="http://www.w3.org/1999/xlink" width="200" height="200"><path d="M555.9808 561.92m-387.7376 0a387.7376 387.7376 0 1 0 775.4752 0 387.7376 387.7376 0 1 0-775.4752 0Z" fill="#7cba59" p-id="2127" data-spm-anchor-id="a313x.collections_detail.0.i15.1c1a3a81WooWB6" class="selected"></path><path d="M477.7984 82.4832a409.1904 409.1904 0 0 0-263.5264 96.0512l8.8576-55.04a25.6 25.6 0 1 0-50.5344-8.1408l-19.7632 122.88a25.6 25.6 0 0 0 21.5552 29.3888l106.5472 15.5136a23.5008 23.5008 0 0 0 3.7376 0.3072 25.6 25.6 0 0 0 3.7376-51.2L238.7968 225.28a358.4 358.4 0 1 1-119.4496 266.9056 25.6 25.6 0 0 0-51.2 0 409.6 409.6 0 1 0 409.6-409.6z" fill="#333333" p-id="2128"></path><path d="M605.696 318.8736a25.6 25.6 0 0 0-35.84 3.584l-92.16 112.1792-92.16-110.848a25.6 25.6 0 1 0-39.424 32.6656L429.0048 456.192h-61.44a25.6 25.6 0 1 0 0 51.2h84.5824v55.0912H367.616a25.6 25.6 0 0 0 0 51.2h84.5312v48.0256a25.6 25.6 0 0 0 51.2 0v-48.0256h84.5312a25.6 25.6 0 0 0 0-51.2H503.3472V507.392h84.5312a25.6 25.6 0 0 0 0-51.2h-61.44L609.28 354.9184a25.6 25.6 0 0 0-3.584-36.0448z" fill="#333333" p-id="2129"></path></svg>